<?xml version="1.0" encoding="utf-8"?>
<!-- Generator: Adobe Illustrator 19.1.1, SVG Export Plug-In . SVG Version: 6.00 Build 0)  -->
<svg version="1.1" id="Group_28" xmlns="http://www.w3.org/2000/svg" xmlns:xlink="http://www.w3.org/1999/xlink" x="0px" y="0px"
	 viewBox="-29 31 40 40" style="enable-background:new -29 31 40 40;" xml:space="preserve">
<style type="text/css">
	.st0{fill:#392A4A;}
</style>
<path class="st0" d="M-9,31c-11,0-20,9-20,20c0,11,9,20,20,20c11,0,20-9,20-20C11,40,2,31-9,31z M-17.1,44.4c0-1.8,1.4-3.2,3.2-3.2
	c0,0,0,0,0,0c1.8,0,3.2,1.5,3.2,3.2c0,1.8-1.4,3.2-3.2,3.2C-15.7,47.7-17.1,46.2-17.1,44.4z M2.3,52.5c0,4.6-3.7,8.2-8.3,8.2
	c-4.6,0-8.3-3.7-8.4-8.3L2.3,52.5L2.3,52.5z M1.9,47.7c-1.8,0-3.2-1.4-3.2-3.2c0-1.8,1.4-3.2,3.2-3.2c1.8,0,3.2,1.4,3.2,3.2
	C5.1,46.2,3.7,47.6,1.9,47.7z"/>
</svg>
